<svg width="1052" height="340" viewBox="0 0 1052 340" fill="none" xmlns="http://www.w3.org/2000/svg">
<path d="M17.0094 247.836V155.981C12.078 155.981 9.61228 155.981 7.6452 155.24C4.53925 154.069 2.08782 151.618 0.917251 148.512C0.175903 146.545 0.175903 144.079 0.175903 139.148V76.3297C0.175903 65.7533 0.175903 60.4651 3.38461 57.1177C3.49728 57.0001 3.61242 56.885 3.72995 56.7723C7.07745 53.5636 12.3656 53.5636 22.942 53.5636C35.3142 20.0518 69.3088 0.874023 104.225 0.874023C132.778 0.874023 156.421 13.7657 181.046 26.8519L207.758 53.5636H305.427C346.048 53.5636 380.61 49.0503 417.94 71.5264C456.971 40.7863 521.739 43.655 555.798 80.6766C583.989 52.01 615.786 52.6395 650.628 53.3292C739.564 55.0899 828.656 53.5571 917.609 53.5636C940.381 47.3426 965.972 51.1101 985.274 64.8949C1025.32 93.4965 1051.82 134.497 1051.82 184.521C1051.82 218.448 1041.76 255.856 1012.89 275.513C996.668 286.559 976.667 290.71 957.276 288.848V316.049C957.276 326.927 957.276 332.367 953.896 335.746C950.517 339.126 945.077 339.126 934.199 339.126H852.442C847.726 339.126 845.367 339.126 843.247 338.248C841.127 337.369 839.459 335.702 836.124 332.367L820.6 316.843C817.266 313.508 815.598 311.841 814.72 309.72C813.841 307.6 813.841 305.242 813.841 300.525V288.697C783.298 292.849 749.82 286.048 727.268 266.58C688.056 297.855 625.409 297.255 588.292 262.767C550.382 296.238 486.534 298.898 446.422 267.538C414.871 295.298 373.001 286.436 334.469 286.436H55.61C50.8937 286.436 48.5355 286.436 46.415 285.558C44.2946 284.68 42.6271 283.012 39.2921 279.677L23.7685 264.154C20.4335 260.819 18.766 259.151 17.8877 257.031C17.0094 254.91 17.0094 252.552 17.0094 247.836Z" fill="#0C0B26"/>
<path fill-rule="evenodd" clip-rule="evenodd" d="M48.9569 225.449H99.4574V124.035H127.513V85.5096H99.4574V81.827C99.4574 78.4277 100.299 75.7838 101.982 73.8953C103.853 71.8179 106.565 70.7792 110.119 70.7792C113.298 70.7792 116.384 71.5346 119.377 73.0454C122.37 74.5562 125.082 76.3503 127.513 78.4277L141.261 41.8849C137.707 39.9964 132.657 38.0135 126.11 35.9361C119.751 33.8587 112.457 32.8201 104.227 32.8201C91.6953 32.8201 81.3146 35.2751 73.0849 40.1853C65.0422 44.9066 58.9635 51.5164 54.8486 60.0147C51.2749 67.575 49.327 76.0733 49.0048 85.5096H32.1234V124.035H48.9569V225.449ZM155.367 223.182C161.54 226.582 168.928 228.281 177.531 228.281C188.006 228.281 196.422 225.826 202.782 220.916C209.328 216.006 214.191 209.774 217.371 202.22C219.961 196.264 221.831 190.084 222.982 183.681V225.449H273.482V85.5096H222.982V161.711C222.982 169.265 222.421 175.12 221.299 179.274C220.363 183.24 218.587 185.979 215.968 187.489C213.349 189 209.609 189.756 204.746 189.756C197.264 189.756 192.308 187.584 189.876 183.24C187.632 178.708 186.509 172.192 186.509 163.694V85.5096H136.009V183.524C136.009 192.966 137.692 201.087 141.059 207.885C144.426 214.495 149.195 219.594 155.367 223.182ZM352.264 228.281C341.603 228.281 331.503 227.243 321.964 225.165C312.425 223.088 303.915 220.444 296.433 217.234C289.139 214.023 283.154 210.624 278.478 207.036L297.275 170.21C302.699 173.798 308.684 177.197 315.231 180.408C321.964 183.618 328.604 186.167 335.15 188.056C341.884 189.945 348.056 190.889 353.667 190.889C357.408 190.889 360.214 190.417 362.084 189.472C363.954 188.528 364.89 187.112 364.89 185.223C364.89 183.146 363.487 181.446 360.681 180.124C358.063 178.802 353.2 177.197 346.092 175.309L327.014 170.21C317.662 167.566 309.62 164.544 302.886 161.145C296.34 157.745 291.383 153.402 288.017 148.114C284.65 142.826 282.967 136.311 282.967 128.568C282.967 114.026 288.484 102.79 299.52 94.8578C310.555 86.926 325.237 82.9601 343.567 82.9601C358.904 82.9601 371.997 85.2263 382.845 89.7588C393.694 94.2912 401.83 98.6348 407.254 102.79L390.14 139.049C381.162 132.439 372.091 127.624 362.926 124.602C353.761 121.58 345.718 120.069 338.798 120.069C335.244 120.069 332.625 120.636 330.942 121.769C329.259 122.713 328.417 124.035 328.417 125.735C328.417 127.812 329.82 129.606 332.625 131.117C335.431 132.628 341.323 134.705 350.301 137.349L364.609 141.599C379.572 145.942 390.794 151.324 398.276 157.745C405.945 164.166 409.779 173.042 409.779 184.373C409.779 193.061 407.441 200.709 402.765 207.319C398.089 213.929 391.449 219.122 382.845 222.899C374.429 226.487 364.235 228.281 352.264 228.281ZM445.476 218.933C456.511 225.165 469.978 228.281 485.876 228.281C501.774 228.281 514.493 225.449 524.032 219.783C533.758 214.117 541.239 207.791 546.477 200.803L515.896 171.343C514.212 175.309 511.874 178.519 508.882 180.974C506.076 183.24 502.803 184.94 499.062 186.073C495.508 187.017 491.394 187.489 486.718 187.489C481.293 187.489 476.337 186.64 471.848 184.94C467.546 183.24 464.086 180.502 461.467 176.725C460.131 174.546 459.163 171.996 458.561 169.076H547.599C547.973 167.377 548.253 164.355 548.44 160.012C548.815 155.668 549.002 151.796 549.002 148.397C549.002 137.066 546.57 126.396 541.707 116.387C537.031 106.378 529.737 98.2571 519.823 92.025C509.91 85.7929 497.005 82.6769 481.106 82.6769C467.078 82.6769 454.828 85.7929 444.353 92.025C434.066 98.2571 426.024 106.85 420.225 117.803C414.614 128.757 411.809 141.315 411.809 155.479C411.809 169.643 414.614 182.202 420.225 193.155C426.024 204.108 434.44 212.701 445.476 218.933ZM457.905 142.732C458.33 135.824 460.359 130.536 463.992 126.868C468.294 122.713 474.092 120.636 481.387 120.636C489.617 120.636 495.415 122.808 498.782 127.151C501.704 130.922 503.358 136.115 503.744 142.732H457.905ZM630.909 228.281C616.133 228.281 603.321 225.165 592.473 218.933C581.812 212.512 573.488 203.825 567.503 192.872C561.705 181.729 558.806 169.265 558.806 155.479C558.806 141.504 561.705 129.04 567.503 118.087C573.488 107.133 581.812 98.5404 592.473 92.3083C603.321 85.8873 616.133 82.6769 630.909 82.6769C646.433 82.6769 659.9 86.265 671.31 93.4414C682.719 100.618 690.855 109.588 695.718 120.353L656.44 146.414C654.57 139.238 651.671 133.856 647.743 130.267C644.002 126.679 639.139 124.885 633.154 124.885C628.852 124.885 624.924 126.018 621.37 128.284C617.816 130.362 615.011 133.667 612.953 138.199C611.083 142.543 610.148 148.303 610.148 155.479C610.148 162.467 611.083 168.227 612.953 172.759C615.011 177.291 617.816 180.691 621.37 182.957C624.924 185.034 628.852 186.073 633.154 186.073C639.139 186.073 644.002 184.279 647.743 180.691C651.671 177.103 654.57 171.72 656.44 164.544L695.718 190.605C690.855 201.37 682.719 210.34 671.31 217.517C659.9 224.693 646.433 228.281 630.909 228.281ZM912.281 220.916C918.079 225.826 926.403 228.281 937.251 228.281C948.286 228.281 957.825 225.543 965.868 220.066C973.911 214.59 980.083 206.469 984.385 195.704C988.687 184.751 990.838 171.343 990.838 155.479C990.838 139.427 988.687 126.018 984.385 115.254C980.27 104.489 974.378 96.3686 966.71 90.8919C959.041 85.4152 950.157 82.6769 940.057 82.6769C929.208 82.6769 920.698 85.1319 914.526 90.0421C908.353 94.7633 903.865 100.995 901.059 108.738C898.931 114.61 897.341 120.7 896.29 127.006V85.5096H845.789V278.138H896.29V184.276C897.235 190.467 898.544 196.448 900.217 202.22C902.649 209.774 906.67 216.006 912.281 220.916ZM896.29 161.711C896.29 169.265 897.131 175.12 898.814 179.274C900.685 183.24 903.116 185.979 906.109 187.489C909.102 189 912.375 189.756 915.929 189.756C924.158 189.756 930.143 186.64 933.884 180.408C937.625 174.175 939.495 165.866 939.495 155.479C939.495 145.092 937.625 136.783 933.884 130.551C930.143 124.319 924.158 121.203 915.929 121.203C912.375 121.203 909.102 121.958 906.109 123.469C903.116 124.98 900.685 127.812 898.814 131.967C897.131 135.933 896.29 141.693 896.29 149.247V161.711ZM742.514 161.226V85.5081L699.066 85.4985V156.253C699.066 181.291 704.926 199.571 716.646 211.092C730.167 224.383 749.483 228.4 767.768 228.372C786.053 228.4 805.369 224.383 818.89 211.092C830.61 199.571 836.47 181.291 836.47 156.253V85.4985L796.147 85.5074L780.54 137.795H797.235L767.529 210.029H759.985V161.228L742.514 161.226Z" fill="white"/>
</svg>
